<svg
  width="200"
  height="70"
  viewBox="0 0 200 70"
  fill="none"
  xmlns="http://www.w3.org/2000/svg"
>
  <g clipPath="url(#clip0_4_111)">
    <path
      d="M104.11 18.8984C104.954 19.6055 105.376 20.7964 105.376 22.471V32.3316C105.376 32.8076 104.94 33.0457 104.066 33.0457H103.68C102.808 33.0457 102.372 32.8076 102.372 32.3316V22.8154C102.372 22.0343 102.168 21.4288 101.76 20.999C101.353 20.5715 100.75 20.3566 99.9549 20.3566C99.2867 20.3454 98.6347 20.5622 98.1062 20.9713C97.6162 21.3378 97.1846 21.7765 96.826 22.2723V32.3316C96.826 32.8076 96.39 33.0457 95.518 33.0457H95.1298C94.2578 33.0457 93.8218 32.8076 93.8218 32.3316V22.8154C93.8218 22.0343 93.6177 21.4288 93.2095 20.999C92.8027 20.5715 92.1904 20.3566 91.3769 20.3566C90.8586 20.3533 90.3486 20.4864 89.898 20.7425C89.4899 20.9638 89.1163 21.2432 88.7887 21.5721C88.5864 21.7592 88.4134 21.9758 88.2757 22.2145V32.3316C88.2757 32.8076 87.8397 33.0457 86.9678 33.0457H86.8129C85.9394 33.0457 85.5027 32.8076 85.5027 32.3316V22.5866C85.5261 21.6682 85.4689 20.7496 85.3317 19.8413C85.2184 19.2705 85.1606 18.9469 85.1606 18.8707C85.1606 18.6049 85.3917 18.4085 85.8724 18.2999C86.3008 18.1909 86.7407 18.1335 87.1827 18.1289C87.3192 18.1256 87.4534 18.1651 87.5665 18.2417C87.6796 18.3183 87.766 18.4283 87.8135 18.5564C87.943 18.8356 88.0429 19.1276 88.1117 19.4276C88.1787 19.7234 88.2226 19.9198 88.2411 20.0146C88.7571 19.3843 89.3904 18.8601 90.1059 18.4709C90.8396 18.056 91.6687 17.8394 92.5116 17.8423C93.3481 17.8297 94.1762 18.0108 94.9311 18.3715C95.6667 18.7394 96.229 19.3806 96.4978 20.1578C97.0598 19.4808 97.7462 18.9176 98.5199 18.4986C99.2726 18.0738 100.121 17.8479 100.986 17.8423C102.12 17.8061 103.23 18.1811 104.11 18.8984V18.8984Z"
      fill="white"
    />
    <path
      d="M110.712 32.015C109.926 31.2047 109.534 30.0662 109.536 28.5995V18.739C109.536 18.2629 109.97 18.0249 110.839 18.0249H110.994C111.871 18.0249 112.309 18.2629 112.309 18.739V28.2552C112.309 29.0386 112.528 29.6417 112.968 30.0716C113.407 30.5014 114.044 30.714 114.883 30.714C115.512 30.7089 116.127 30.5254 116.656 30.1848C117.223 29.8385 117.71 29.3762 118.086 28.8283V18.739C118.086 18.2629 118.524 18.0249 119.401 18.0249H119.787C120.656 18.0249 121.09 18.2629 121.09 18.739V28.5695C121.065 29.4971 121.122 30.4251 121.261 31.3425C121.375 31.9133 121.43 32.2392 121.43 32.3131C121.43 32.5812 121.199 32.7753 120.723 32.8862C120.297 32.9939 119.859 33.0513 119.42 33.0572C119.285 33.0598 119.154 33.0195 119.044 32.9422C118.934 32.8649 118.852 32.7546 118.809 32.6274C118.684 32.3338 118.589 32.0279 118.527 31.7146C118.46 31.3911 118.419 31.1715 118.4 31.056C117.859 31.719 117.183 32.26 116.418 32.6436C115.683 33.0241 114.868 33.2245 114.04 33.2282C112.604 33.2282 111.495 32.8238 110.712 32.015Z"
      fill="white"
    />
    <path
      d="M126.636 32.3178C125.866 31.6784 125.481 30.6162 125.481 29.131V12.2616C125.481 11.7902 125.923 11.5544 126.807 11.5544H127.131C128.032 11.5544 128.485 11.7855 128.485 12.2685V28.9878C128.485 29.6733 128.613 30.154 128.869 30.4298C129.005 30.5711 129.17 30.6814 129.353 30.7531C129.535 30.8249 129.731 30.8565 129.927 30.8457C130.16 30.8495 130.393 30.8255 130.62 30.7741C130.76 30.7334 130.903 30.7093 131.048 30.7024C131.244 30.7024 131.411 30.9058 131.547 31.3171C131.662 31.6132 131.732 31.9248 131.755 32.2415C131.755 32.9255 130.969 33.2683 129.398 33.2698C128.393 33.2944 127.413 32.9565 126.636 32.3178Z"
      fill="white"
    />
    <path
      d="M134.262 32.3339V12.2662C134.262 11.7917 134.704 11.5544 135.589 11.5544H135.716C136.594 11.5544 137.035 11.7855 137.035 12.2662V19.8736C137.597 19.298 138.252 18.8214 138.972 18.464C139.707 18.0947 140.518 17.9046 141.341 17.9094C142.492 17.8687 143.62 18.2371 144.525 18.9493C145.386 19.6564 145.817 20.8442 145.817 22.5127V32.3339C145.817 32.8077 145.375 33.0457 144.497 33.0457H144.347C143.478 33.0457 143.044 32.8077 143.044 32.3316V22.8154C143.044 22.0343 142.826 21.4289 142.392 20.999C141.958 20.5692 141.316 20.3551 140.467 20.3566C139.933 20.3536 139.406 20.4864 138.937 20.7425C138.508 20.9636 138.118 21.2532 137.782 21.5999C137.587 21.7949 137.415 22.0103 137.266 22.2423V32.3339C137.266 32.8077 136.804 33.0457 135.912 33.0457H135.589C134.704 33.0457 134.262 32.8084 134.262 32.3339Z"
      fill="white"
    />
    <path
      d="M149.417 25.5746C149.417 23.0033 149.998 21.0653 151.159 19.7604C152.321 18.4555 153.988 17.8 156.16 17.7938C158.163 17.7938 159.659 18.4416 160.648 19.7373C161.637 21.0329 162.132 22.8716 162.134 25.2534C162.134 25.4452 161.995 25.7155 161.72 26.0529C161.445 26.3903 161.219 26.5683 161.048 26.5683H152.497C152.613 28.018 153.004 29.0709 153.669 29.7272C154.335 30.3835 155.307 30.7117 156.585 30.7117C157.228 30.723 157.868 30.6365 158.485 30.4552C158.966 30.3082 159.435 30.1219 159.885 29.8982C160.097 29.7726 160.323 29.6718 160.558 29.5978C160.766 29.5978 161.02 29.8174 161.286 30.2541C161.552 30.6909 161.699 31.0167 161.699 31.227C161.699 31.5351 161.448 31.8348 160.944 32.1259C160.33 32.4625 159.671 32.7084 158.986 32.8562C158.19 33.0451 157.374 33.1405 156.555 33.1404C151.797 33.145 149.417 30.6231 149.417 25.5746ZM159.123 24.2643C159.123 22.9502 158.871 21.9488 158.367 21.2602C157.863 20.5715 157.106 20.2241 156.096 20.2179C153.939 20.2179 152.738 21.5706 152.493 24.2759L159.123 24.2643Z"
      fill="white"
    />
    <path
      d="M165.69 32.3316V22.5866C165.714 21.6681 165.655 20.7493 165.515 19.8413C165.397 19.2705 165.337 18.9469 165.337 18.8707C165.337 18.6049 165.582 18.4085 166.074 18.2999C166.517 18.191 166.972 18.1336 167.428 18.1289C167.562 18.1223 167.695 18.1572 167.808 18.2288C167.921 18.3003 168.01 18.405 168.061 18.5287C168.191 18.8026 168.291 19.0901 168.357 19.386C168.424 19.691 168.468 19.899 168.489 20.0146C169.49 18.5664 170.609 17.8423 171.847 17.8423C172.304 17.8082 172.759 17.9403 173.127 18.2144C173.258 18.3213 173.364 18.4563 173.437 18.6094C173.51 18.7625 173.547 18.9299 173.547 19.0995C173.539 19.4891 173.469 19.8751 173.342 20.2433C173.203 20.6616 173.046 20.8719 172.879 20.8719C172.673 20.8519 172.47 20.8036 172.276 20.7286C171.966 20.6299 171.643 20.5815 171.317 20.5854C170.729 20.5783 170.158 20.7871 169.714 21.1723C169.327 21.4809 168.985 21.8409 168.697 22.2423V32.3316C168.697 32.8076 168.255 33.0457 167.37 33.0457H167.047C166.142 33.0457 165.69 32.8076 165.69 32.3316Z"
      fill="white"
    />
    <path
      d="M175.28 25.5746C175.28 23.0064 175.858 21.0683 177.014 19.7604C178.169 18.4524 179.839 17.7969 182.024 17.7938C184.026 17.7938 185.522 18.4416 186.511 19.7373C187.5 21.0329 187.996 22.8716 187.997 25.2534C187.997 25.4452 187.859 25.7155 187.581 26.0529C187.304 26.3903 187.082 26.5683 186.911 26.5683H178.361C178.476 28.018 178.867 29.0709 179.533 29.7272C180.198 30.3835 181.17 30.7117 182.449 30.7117C183.091 30.723 183.732 30.6365 184.348 30.4552C184.83 30.3082 185.298 30.1219 185.749 29.8982C185.961 29.7726 186.186 29.6718 186.421 29.5978C186.629 29.5978 186.872 29.8174 187.149 30.2541C187.426 30.6909 187.563 31.0167 187.563 31.227C187.563 31.5351 187.311 31.8348 186.807 32.1259C186.193 32.4628 185.533 32.7088 184.848 32.8562C184.052 33.0453 183.237 33.1407 182.419 33.1404C177.658 33.145 175.279 30.6231 175.28 25.5746ZM184.986 24.2643C184.986 22.9502 184.734 21.9488 184.228 21.2602C183.723 20.5715 182.966 20.2241 181.957 20.2179C179.8 20.2179 178.6 21.5706 178.356 24.2759L184.986 24.2643Z"
      fill="white"
    />
    <path
      d="M192.54 32.9648C191.94 32.8173 191.366 32.5763 190.84 32.2507C190.413 31.9642 190.199 31.6784 190.197 31.3934C190.242 31.0243 190.385 30.674 190.611 30.3789C190.888 29.9491 191.131 29.7342 191.339 29.7342C191.539 29.8156 191.731 29.9162 191.912 30.0346C192.284 30.249 192.677 30.4262 193.084 30.5638C193.562 30.7236 194.065 30.8017 194.569 30.7949C196.226 30.7949 197.054 30.1278 197.056 28.7936C197.068 28.5294 197.017 28.266 196.908 28.0251C196.799 27.7842 196.634 27.5724 196.427 27.4071C196.007 27.0743 195.302 26.7462 194.313 26.4227C192.977 26.0221 192.015 25.4929 191.427 24.8351C190.838 24.1773 190.542 23.2776 190.539 22.136C190.519 21.5519 190.629 20.9706 190.861 20.4342C191.094 19.8979 191.442 19.4198 191.882 19.0348C192.779 18.2444 193.951 17.8493 195.399 17.8493C196.318 17.8375 197.233 17.9669 198.112 18.2329C198.933 18.4886 199.343 18.8075 199.341 19.1896C199.311 19.5748 199.189 19.9473 198.986 20.2757C198.754 20.7148 198.523 20.932 198.313 20.932C198.048 20.8266 197.791 20.7046 197.541 20.5669C196.983 20.323 196.377 20.21 195.769 20.2364C195.201 20.2139 194.638 20.3585 194.151 20.6524C193.954 20.7725 193.792 20.9426 193.681 21.1455C193.571 21.3484 193.516 21.5769 193.523 21.8078C193.512 22.0746 193.562 22.3403 193.669 22.5851C193.775 22.83 193.935 23.0477 194.137 23.2221C194.708 23.6602 195.352 23.9935 196.039 24.2065C196.863 24.4663 197.654 24.8215 198.396 25.2649C198.923 25.5899 199.348 26.0547 199.626 26.6075C199.904 27.2467 200.035 27.9399 200.012 28.6365C200.023 29.4761 199.789 30.3007 199.339 31.0098C198.887 31.7185 198.247 32.2875 197.49 32.6528C196.655 33.0581 195.736 33.2623 194.807 33.249C194.043 33.2547 193.28 33.1591 192.54 32.9648V32.9648Z"
      fill="white"
    />
    <path
      d="M84.7008 54.5369C83.9373 53.9369 83.3549 53.137 83.0185 52.226C82.6013 51.1326 82.3981 49.9691 82.42 48.799C82.3905 47.5881 82.6067 46.3838 83.0554 45.2587C83.4185 44.3478 84.0373 43.5613 84.8371 42.994C85.6327 42.4625 86.5727 42.189 87.5293 42.2106C88.136 42.2007 88.7395 42.3001 89.311 42.5041C89.8496 42.7098 90.3567 42.9898 90.8177 43.336V37.3555C90.8177 36.9457 91.1913 36.7415 91.9385 36.7431H92.2042C92.9745 36.7431 93.3597 36.9472 93.3597 37.3555V51.3664C93.3387 52.1611 93.3889 52.9562 93.5099 53.742C93.6092 54.2319 93.6578 54.5092 93.6578 54.5739C93.6578 54.805 93.4498 54.9667 93.0361 55.0638C92.6579 55.1572 92.2702 55.2068 91.8807 55.2117C91.764 55.215 91.6492 55.1812 91.5529 55.1152C91.4565 55.0492 91.3836 54.9543 91.3446 54.8443C91.2352 54.5962 91.1516 54.3376 91.095 54.0724C91.0372 53.802 91.0002 53.6102 90.9841 53.5201C89.8872 54.7526 88.6239 55.3688 87.1942 55.3688C86.2934 55.3782 85.4155 55.0852 84.7008 54.5369V54.5369ZM89.3965 52.7136C89.9342 52.404 90.4149 52.0046 90.8177 51.5328V45.157C90.064 44.5637 89.1309 44.2443 88.1717 44.2512C87.1765 44.2512 86.4255 44.6186 85.9186 45.3534C85.4118 46.0883 85.1591 47.1582 85.1607 48.5633C85.1607 50.033 85.3917 51.1638 85.8539 51.9556C86.0462 52.3224 86.3372 52.628 86.6942 52.8379C87.0511 53.0479 87.4597 53.1537 87.8736 53.1434C88.4102 53.1363 88.9354 52.9881 89.3965 52.7136Z"
      fill="white"
    />
    <path
      d="M96.4124 48.8267C96.4124 46.6221 96.91 44.9606 97.9052 43.8421C98.9004 42.7237 100.329 42.1644 102.192 42.1644C103.907 42.1644 105.188 42.7198 106.037 43.8306C106.886 44.9413 107.31 46.5166 107.31 48.5563C107.267 48.8183 107.143 49.0604 106.957 49.2496C106.726 49.5431 106.527 49.691 106.381 49.691H99.0583C99.1554 50.9327 99.4897 51.8347 100.061 52.397C100.633 52.9593 101.465 53.2413 102.559 53.2428C103.111 53.2497 103.66 53.1718 104.188 53.0117C104.601 52.887 105.002 52.7278 105.388 52.5357C105.57 52.4289 105.763 52.3422 105.963 52.2769C106.143 52.2769 106.351 52.4664 106.589 52.8407C106.774 53.0858 106.895 53.3722 106.943 53.675C106.943 53.9353 106.727 54.1918 106.296 54.4445C105.77 54.7331 105.205 54.9441 104.618 55.0707C103.937 55.2325 103.239 55.3147 102.538 55.3157C98.4544 55.3172 96.4124 53.1542 96.4124 48.8267ZM104.732 47.6043C104.732 46.4765 104.515 45.6154 104.082 45.0207C103.648 44.4245 103.001 44.1264 102.134 44.1264C100.285 44.1264 99.257 45.2857 99.0491 47.6043H104.732Z"
      fill="white"
    />
    <path
      d="M116.237 59.4961V46.0929C116.259 45.3067 116.209 44.5202 116.09 43.7428C115.99 43.2529 115.942 42.9756 115.942 42.9085C115.942 42.6775 116.147 42.518 116.559 42.4186C116.93 42.3266 117.311 42.2778 117.693 42.273C117.809 42.27 117.923 42.3022 118.02 42.3653C118.117 42.4284 118.192 42.5196 118.236 42.6266C118.35 42.861 118.437 43.1075 118.495 43.3615C118.553 43.6157 118.59 43.7821 118.606 43.8653C119.157 43.2109 119.853 42.6948 120.64 42.3586C121.146 42.1499 121.687 42.0379 122.234 42.0281C123.179 41.9879 124.109 42.2779 124.864 42.8485C125.617 43.4492 126.186 44.2501 126.505 45.1593C126.904 46.2705 127.097 47.4452 127.073 48.6257C127.073 50.6824 126.616 52.2908 125.703 53.4508C124.789 54.6109 123.557 55.1901 122.005 55.1886C121.408 55.1994 120.815 55.0999 120.254 54.8951C119.724 54.6881 119.225 54.4081 118.772 54.0632V59.5007C118.772 59.892 118.394 60.0877 117.638 60.0877H117.365C116.613 60.0846 116.237 59.8874 116.237 59.4961ZM123.665 52.0412C124.164 51.3063 124.413 50.2364 124.413 48.8314C124.413 47.3616 124.182 46.2308 123.72 45.439C123.531 45.0721 123.242 44.766 122.887 44.5559C122.532 44.3457 122.125 44.2401 121.712 44.2512C121.169 44.2568 120.636 44.4051 120.168 44.681C119.638 44.99 119.168 45.3924 118.782 45.8688V52.2376C119.529 52.8422 120.464 53.1652 121.425 53.1504C122.422 53.1504 123.169 52.7807 123.665 52.0412Z"
      fill="white"
    />
    <path
      d="M130.334 54.6178V46.2662C130.354 45.4792 130.304 44.6918 130.184 43.9138C130.084 43.4239 130.036 43.1466 130.036 43.0818C130.036 42.8508 130.241 42.689 130.657 42.5919C131.036 42.4985 131.423 42.4489 131.813 42.444C131.927 42.4394 132.039 42.4699 132.135 42.5315C132.231 42.5931 132.306 42.6828 132.349 42.7884C132.46 43.0231 132.543 43.2696 132.598 43.5232C132.656 43.7844 132.693 43.9646 132.712 44.0617C133.557 42.8215 134.504 42.2006 135.552 42.1991C135.94 42.1698 136.325 42.2832 136.636 42.518C136.748 42.6101 136.839 42.726 136.902 42.8575C136.965 42.9889 136.998 43.1326 136.998 43.2783C136.991 43.612 136.932 43.9425 136.823 44.2581C136.707 44.6163 136.573 44.7965 136.423 44.7965C136.248 44.7793 136.076 44.7381 135.912 44.674C135.651 44.5898 135.378 44.5485 135.103 44.5516C134.604 44.5452 134.12 44.7238 133.745 45.053C133.418 45.3207 133.128 45.6317 132.885 45.9774V54.6224C132.885 55.0322 132.511 55.2363 131.764 55.2348H131.489C130.719 55.2317 130.334 55.026 130.334 54.6178Z"
      fill="white"
    />
    <path
      d="M139.959 53.5964C138.979 52.4779 138.489 50.8603 138.489 48.7435C138.489 46.6267 138.987 44.9937 139.984 43.8444C140.981 42.7029 142.401 42.1313 144.245 42.1298C146.089 42.1282 147.497 42.6959 148.47 43.8329C149.443 44.9683 149.929 46.6052 149.928 48.7435C149.926 50.8819 149.445 52.4995 148.483 53.5964C147.521 54.7148 146.108 55.2741 144.245 55.2741C142.383 55.2741 140.954 54.7148 139.959 53.5964ZM146.584 52.0897C147.098 51.3548 147.356 50.2279 147.356 48.7089C147.356 47.1898 147.098 46.059 146.584 45.3165C146.072 44.5739 145.278 44.2026 144.199 44.2026C143.138 44.2026 142.35 44.5747 141.849 45.3165C141.347 46.0583 141.089 47.1906 141.089 48.7089C141.089 50.2271 141.338 51.3548 141.835 52.0897C142.332 52.8245 143.122 53.192 144.199 53.192C145.276 53.192 146.071 52.8245 146.584 52.0897V52.0897Z"
      fill="white"
    />
    <path
      d="M154.489 54.5369C153.726 53.9369 153.144 53.137 152.807 52.226C152.39 51.1326 152.187 49.9691 152.209 48.799C152.179 47.5881 152.395 46.3838 152.844 45.2587C153.207 44.3478 153.826 43.5613 154.626 42.994C155.421 42.4625 156.361 42.189 157.318 42.2106C157.925 42.2007 158.528 42.3001 159.1 42.5041C159.638 42.7098 160.145 42.9898 160.606 43.336V37.3555C160.606 36.9457 160.98 36.7415 161.727 36.7431H161.993C162.763 36.7431 163.148 36.9472 163.148 37.3555V51.3664C163.127 52.1611 163.178 52.9562 163.299 53.742C163.398 54.2319 163.446 54.5092 163.446 54.5739C163.446 54.805 163.238 54.9667 162.825 55.0638C162.447 55.1572 162.059 55.2068 161.669 55.2117C161.553 55.215 161.438 55.1812 161.342 55.1152C161.245 55.0492 161.172 54.9543 161.133 54.8443C161.024 54.5962 160.94 54.3376 160.884 54.0724C160.826 53.802 160.789 53.6102 160.773 53.5201C159.676 54.7526 158.413 55.3688 156.983 55.3688C156.082 55.3782 155.204 55.0852 154.489 54.5369V54.5369ZM159.185 52.7136C159.723 52.404 160.204 52.0046 160.606 51.5328V45.157C159.853 44.5637 158.92 44.2443 157.96 44.2512C156.965 44.2512 156.214 44.6186 155.707 45.3534C155.2 46.0883 154.948 47.1582 154.949 48.5633C154.949 50.033 155.18 51.1638 155.643 51.9556C155.835 52.3224 156.126 52.628 156.483 52.8379C156.84 53.0479 157.248 53.1537 157.662 53.1434C158.199 53.1363 158.724 52.9881 159.185 52.7136V52.7136Z"
      fill="white"
    />
    <path
      d="M167.856 54.2781C167.184 53.5848 166.847 52.6096 166.846 51.3525V42.9016C166.846 42.4918 167.219 42.2877 167.967 42.2892H168.283C169.02 42.2892 169.388 42.4934 169.388 42.9016V51.0567C169.37 51.3398 169.41 51.6235 169.505 51.8908C169.6 52.158 169.748 52.4034 169.94 52.6119C170.31 52.9801 170.849 53.1642 171.558 53.1642C172.088 53.1565 172.605 52.996 173.046 52.7021C173.522 52.4047 173.932 52.0112 174.248 51.5466V42.9016C174.248 42.4918 174.616 42.2877 175.352 42.2892H175.669C176.416 42.2892 176.79 42.4934 176.79 42.9016V51.3271C176.769 52.1217 176.817 52.9166 176.935 53.7027C177.032 54.1926 177.083 54.4699 177.083 54.5346C177.083 54.7657 176.88 54.9275 176.473 55.0245C176.107 55.1184 175.73 55.168 175.352 55.1724C175.237 55.1749 175.125 55.1406 175.031 55.0745C174.937 55.0084 174.866 54.9139 174.83 54.805C174.722 54.5529 174.64 54.2904 174.585 54.0216C174.529 53.7443 174.492 53.5594 174.476 53.4577C174.01 54.0257 173.429 54.4888 172.771 54.8165C172.139 55.1438 171.438 55.3165 170.726 55.3203C169.487 55.3203 168.53 54.9729 167.856 54.2781Z"
      fill="white"
    />
    <path
      d="M182.058 54.4468C181.468 53.9014 181.173 52.9917 181.173 51.7176V44.369H180.147C180.061 44.376 179.974 44.3605 179.895 44.3241C179.816 44.2876 179.748 44.2315 179.697 44.161C179.586 43.9542 179.537 43.72 179.556 43.4863V43.1396C179.538 42.9143 179.587 42.6889 179.694 42.4903C179.744 42.422 179.81 42.3677 179.886 42.3325C179.963 42.2973 180.047 42.2824 180.131 42.2892H181.134L181.46 39.8767C181.511 39.4823 181.828 39.2851 182.412 39.2851H182.814C183.415 39.2851 183.715 39.4823 183.715 39.8767V42.2892H185.478C185.56 42.284 185.641 42.3005 185.714 42.3371C185.788 42.3736 185.85 42.4289 185.894 42.4972C185.997 42.7056 186.043 42.9378 186.026 43.1697V43.4886C186.043 43.7205 185.997 43.9526 185.894 44.161C185.85 44.2294 185.788 44.2846 185.714 44.3212C185.641 44.3577 185.56 44.3742 185.478 44.369H183.484V51.5952C183.484 52.1821 183.577 52.5958 183.764 52.8315C183.863 52.9513 183.989 53.0461 184.131 53.1079C184.274 53.1698 184.429 53.197 184.584 53.1874C184.762 53.1911 184.939 53.1701 185.111 53.125C185.217 53.0914 185.326 53.0713 185.437 53.0649C185.585 53.0649 185.712 53.2405 185.818 53.5894C185.905 53.8472 185.958 54.1152 185.975 54.3867C185.975 54.9737 185.377 55.2672 184.18 55.2672C183.392 55.2823 182.631 54.9877 182.058 54.4468V54.4468Z"
      fill="white"
    />
    <path
      d="M189.751 53.5964C188.773 52.4779 188.284 50.8603 188.284 48.7435C188.284 46.6267 188.781 44.9937 189.777 43.8444C190.772 42.7029 192.192 42.1313 194.038 42.1298C195.884 42.1282 197.296 42.6929 198.274 43.8236C199.244 44.9591 199.73 46.5959 199.73 48.7343C199.73 50.8726 199.248 52.4902 198.285 53.5871C197.322 54.7056 195.91 55.2648 194.047 55.2648C192.185 55.2648 190.753 54.7087 189.751 53.5964ZM196.377 52.0897C196.893 51.3548 197.15 50.2279 197.148 48.7089C197.147 47.1898 196.89 46.059 196.377 45.3165C195.864 44.5739 195.068 44.2026 193.989 44.2026C192.911 44.2026 192.128 44.5739 191.639 45.3165C191.131 46.0606 190.877 47.1914 190.879 48.7089C190.88 50.2263 191.129 51.3533 191.625 52.0897C192.125 52.8245 192.913 53.192 193.989 53.192C195.066 53.192 195.862 52.8245 196.377 52.0897Z"
      fill="white"
    />
    <path
      d="M34.8943 0C27.9928 0 21.2464 2.04652 15.508 5.88076C9.76969 9.71501 5.2972 15.1648 2.65613 21.5409C0.0150579 27.917 -0.675966 34.9331 0.67044 41.7019C2.01685 48.4708 5.34021 54.6884 10.2203 59.5684C15.1003 64.4485 21.3179 67.7719 28.0867 69.1183C34.8556 70.4647 41.8717 69.7736 48.2478 67.1326C54.6239 64.4915 60.0736 60.019 63.9079 54.2806C67.7421 48.5423 69.7886 41.7958 69.7886 34.8944C69.7886 25.6398 66.1123 16.7643 59.5683 10.2203C53.0244 3.67636 44.1488 0 34.8943 0V0ZM23.802 53.6357C23.802 53.9973 23.6584 54.3441 23.4027 54.5997C23.147 54.8554 22.8002 54.9991 22.4386 54.9991H16.153C15.974 54.9991 15.7967 54.9638 15.6313 54.8953C15.4658 54.8268 15.3155 54.7263 15.1889 54.5997C15.0623 54.4731 14.9619 54.3228 14.8934 54.1574C14.8249 53.992 14.7896 53.8147 14.7896 53.6357V24.0332L23.802 33.4639V53.6357ZM27.5249 34.8944L15.9705 22.6721C15.9011 22.5982 15.8203 22.5173 15.7047 22.4017C14.9421 21.6438 14.5631 21.1377 14.7549 20.6732C16.6452 17.9648 21.0637 16.5136 21.8794 16.6014H21.9533C22.5703 16.6014 23.1642 17.2323 23.4184 17.5026L33.3552 28.038L28.3984 33.4177C28.002 33.8396 27.7037 34.3438 27.5249 34.8944V34.8944ZM43.4446 33.1612L36.4287 40.7733C36.0527 41.1786 35.5316 41.4187 34.9791 41.4412C34.4267 41.4637 33.8878 41.2668 33.48 40.8934L29.9883 37.6674C29.7863 37.4823 29.6229 37.259 29.5075 37.0104C29.3921 36.7619 29.3269 36.493 29.3158 36.2192C29.3046 35.9454 29.3476 35.6721 29.4424 35.415C29.5372 35.1579 29.6819 34.9221 29.8681 34.7211L43.4446 19.9961V33.1612ZM54.3057 53.8436C54.3057 54.2727 54.1353 54.6841 53.8319 54.9875C53.5286 55.2908 53.1171 55.4613 52.6881 55.4613H46.9109C46.4819 55.4613 46.0704 55.2908 45.767 54.9875C45.4637 54.6841 45.2933 54.2727 45.2933 53.8436V18.7182C45.2933 18.2892 45.4637 17.8777 45.767 17.5743C46.0704 17.271 46.4819 17.1006 46.9109 17.1006H52.6881C53.1171 17.1006 53.5286 17.271 53.8319 17.5743C54.1353 17.8777 54.3057 18.2892 54.3057 18.7182V53.8436Z"
      fill="white"
    />
  </g>
  <defs>
    <clipPath id="clip0_4_111">
      <rect width="200" height="69.8095" fill="white" />
    </clipPath>
  </defs>
</svg>